<?xml version="1.0" encoding="UTF-8"?>
<svg version="1.1" xmlns="http://www.w3.org/2000/svg" width="506" height="169">
<path d="M0 0 C0.99 0 1.98 0 3 0 C3 0.99 3 1.98 3 3 C3.556875 2.649375 4.11375 2.29875 4.6875 1.9375 C7.53886783 0.78154007 9.08517222 1.19032562 12 2 C12.50683399 6.15603872 12.02475233 8.34907233 9.5625 11.625 C9.11003906 12.17414063 8.65757812 12.72328125 8.19140625 13.2890625 C6.87504482 15.17944383 6.42692911 16.75248815 6 19 C13.20650733 15.84932892 17.65067665 11.45122542 22.640625 5.42578125 C25.0842677 2.91336053 26.64050513 1.88975386 30 1 C33.6875 1.375 33.6875 1.375 37 2 C37.66 2 38.32 2 39 2 C40.32 2 41.64 2 43 2 C41.14945936 5.85691628 39.00656926 9.54423295 36.875 13.25 C36.50246094 13.8996875 36.12992187 14.549375 35.74609375 15.21875 C34.83170879 16.81306224 33.91598744 18.4066079 33 20 C39.52829505 16.22232475 44.68414888 12.58427358 49.45703125 6.734375 C52.68052144 3.11100881 55.84219843 2.10156154 60.5625 1.6875 C63.80562416 1.98232947 66.08886509 2.58854065 69 4 C69 7.88913632 67.54590785 9.14784149 65.19140625 12.0859375 C63.77509649 14.3613204 63.39353547 16.36738341 63 19 C64.58420129 18.37720331 66.16732531 17.75166599 67.75 17.125 C69.07257813 16.60292969 69.07257813 16.60292969 70.421875 16.0703125 C73.79073904 14.69400852 73.79073904 14.69400852 77 13 C77.73519522 11.02416285 78.39072482 9.01822402 79 7 C80.24045398 4.60082739 81.609209 2.317985 83 0 C84.32 0 85.64 0 87 0 C87 0.99 87 1.98 87 3 C87.556875 2.649375 88.11375 2.29875 88.6875 1.9375 C91.53886783 0.78154007 93.08517222 1.19032562 96 2 C95.59683075 8.31631828 93.28767869 12.64993984 90 18 C93.86137461 16.88449178 96.29521127 15.97526761 99 13 C99.66 13 100.32 13 101 13 C101.0928125 12.1646875 101.0928125 12.1646875 101.1875 11.3125 C102.34994618 8.00399932 104.42613591 6.33443487 107 4 C107.9590625 3.1028125 107.9590625 3.1028125 108.9375 2.1875 C111.70365208 0.59486699 113.86597201 0.78631627 117 1 C117.69140625 3.24609375 117.69140625 3.24609375 118 6 C114.96418625 11.20840889 110.13551213 14.99384656 105 18 C108.56480762 19.18826921 109.19969907 18.76813843 112.5 17.25 C113.2734375 16.90453125 114.046875 16.5590625 114.84375 16.203125 C117.04614979 15.10943537 117.04614979 15.10943537 118.59375 13.359375 C120 12 120 12 123 12 C121.80838951 16.63404081 119.53344734 18.4048178 115.75390625 20.984375 C111.84694309 23.24675901 108.42641159 23.38158721 104 23 C101.0625 21 101.0625 21 99 19 C98.319375 19.495 97.63875 19.99 96.9375 20.5 C93.38453064 22.31428223 90.9395287 22.30304067 87 22 C86 21 86 21 85.625 17.9375 C86.10292215 12.91931746 88.08822488 10.00369079 91 6 C84.60624992 9.74268298 80.09433605 14.85849592 76 21 C73 21.625 73 21.625 70 22 C69.34 22.33 68.68 22.66 68 23 C64.5625 23.3125 64.5625 23.3125 61 23 C59.0625 21 59.0625 21 58 19 C57.319375 19.66 56.63875 20.32 55.9375 21 C52.28670848 23.48564529 50.33453498 23.64215333 46 23 C44.2890625 20.96875 44.2890625 20.96875 43 19 C42.15695312 19.5053125 41.31390625 20.010625 40.4453125 20.53125 C39.34960938 21.1809375 38.25390625 21.830625 37.125 22.5 C36.03445313 23.1496875 34.94390625 23.799375 33.8203125 24.46875 C31 26 31 26 29 26 C28.74476563 26.87785156 28.48953125 27.75570312 28.2265625 28.66015625 C25.24025408 36.79166485 18.52294197 45.51315589 11 50 C8.38408704 50.53608842 6.68374333 50.39137924 4 50 C2.10957395 46.71662844 1.90973694 45.34815752 2.875 41.625 C7.55543212 32.32439883 18.25184223 27.7303943 27 23 C27 22.34 27 21.68 27 21 C26.443125 21.350625 25.88625 21.70125 25.3125 22.0625 C22.3831318 23.2500817 20.97391045 22.99130348 18 22 C16.1875 20.4375 16.1875 20.4375 15 19 C14.505 19.495 14.01 19.99 13.5 20.5 C9.88369842 22.66978095 7.17768384 22.20888419 3 22 C1.79811897 18.05096233 1.4743768 16.11432118 3.26953125 12.30859375 C4.78100695 9.82014547 6.33988927 7.39152184 8 5 C2.0648304 9.10186165 -2.11541068 12.97991519 -5.7109375 19.27734375 C-6.13632812 19.84582031 -6.56171875 20.41429688 -7 21 C-7.99 21 -8.98 21 -10 21 C-10.72164543 15.75536561 -8.25790925 12.49557633 -5.5625 8.25 C-5.14162109 7.56550781 -4.72074219 6.88101563 -4.28710938 6.17578125 C-1.2210836 1.2210836 -1.2210836 1.2210836 0 0 Z M26 8 C22.57342833 11.52175421 21.45427596 14.11653339 21 19 C26.247384 17.52417325 30.39565449 13.99172844 34 10 C34.77010733 7.87605384 34.77010733 7.87605384 35 6 C31.06273105 4.39592747 29.29324977 5.53006268 26 8 Z M59 5 C54.73288227 7.36053321 51.68407425 9.92418355 49 14 C48.21053391 16.68507329 48.21053391 16.68507329 48 19 C52.00787229 18.4674855 54.21868009 17.41108236 57.25 14.75 C57.93578125 14.16734375 58.6215625 13.5846875 59.328125 12.984375 C61.2857689 10.66081635 61.65034396 8.98236036 62 6 C61.01 5.67 60.02 5.34 59 5 Z M112 5 C109.03 7.475 109.03 7.475 106 10 C106.33 10.66 106.66 11.32 107 12 C109.31 10.02 111.62 8.04 114 6 C113.34 5.67 112.68 5.34 112 5 Z M10.296875 38.66015625 C7.56497572 41.7296178 7 42.74643547 7 47 C13.24263766 45.48663329 17.01396572 40.09519377 20.3359375 34.91796875 C21.26447915 33.30125262 22.13877278 31.65355626 23 30 C18.31013514 30 13.51909415 35.51923162 10.296875 38.66015625 Z " fill="#000000" transform="translate(305,55)"/>
<path d="M0 0 C0.34465475 3.67272715 0.28892874 5.53584133 -1.6875 8.7109375 C-2.8321875 10.02964844 -2.8321875 10.02964844 -4 11.375 C-4.81339844 12.31730469 -5.62679687 13.25960937 -6.46484375 14.23046875 C-9.86289926 17.94267423 -13.35318079 21.53204385 -17 25 C-15.02 25 -13.04 25 -11 25 C-10.05099347 28.06935825 -9.71064561 29.43989923 -11.21484375 32.3515625 C-11.78332031 33.10179687 -12.35179687 33.85203125 -12.9375 34.625 C-15.541255 37.92232255 -15.541255 37.92232255 -16 42 C-12.85784533 41.39786904 -10.89665479 40.38706131 -8.375 38.4375 C-5.21246459 36 -5.21246459 36 -3 36 C-3.73835562 40.2992859 -5.65577289 42.10194791 -8.953125 44.79296875 C-12.49643293 46.8824385 -14.97280625 46.61431769 -19 46 C-21 43 -21 43 -20.875 39.625 C-19.93253293 35.72049355 -18.67555414 33.92638734 -16 31 C-15.67 30.34 -15.34 29.68 -15 29 C-21.70994811 33.83054134 -29.21953939 39.43907877 -33 47 C-34.485 46.505 -34.485 46.505 -36 46 C-36.33 45.34 -36.66 44.68 -37 44 C-37.49628906 44.28875 -37.99257812 44.5775 -38.50390625 44.875 C-43.12125213 47.39833133 -46.60860763 48.84570861 -52 48 C-53.9375 46.125 -53.9375 46.125 -55 44 C-55 43.34 -55 42.68 -55 42 C-55.56847656 42.3609375 -56.13695312 42.721875 -56.72265625 43.09375 C-61.59190581 46.02017712 -65.15688015 48.0113092 -71 47 C-73.9375 45 -73.9375 45 -76 43 C-77.010625 43.66 -78.02125 44.32 -79.0625 45 C-82.82923291 47.14261528 -85.63527928 47.57647255 -90 47 C-92.4375 45.625 -92.4375 45.625 -94 44 C-94 43.34 -94 42.68 -94 42 C-94.825 42.66 -95.65 43.32 -96.5 44 C-100.3691267 46.6132765 -103.42724721 46.38752142 -108 46 C-109 45 -109 45 -109.4375 42.5625 C-108.78363922 37.23820507 -105.92767931 33.40894563 -103 29 C-108.9351696 33.10186165 -113.11541068 36.97991519 -116.7109375 43.27734375 C-117.13632813 43.84582031 -117.56171875 44.41429687 -118 45 C-118.99 45 -119.98 45 -121 45 C-121.68495679 39.80238668 -119.367707 36.50890261 -116.75 32.25 C-116.35425781 31.56550781 -115.95851563 30.88101563 -115.55078125 30.17578125 C-112.52898512 25.17247946 -112.52898512 25.17247946 -109.85253906 24.29980469 C-109.24120117 24.20086914 -108.62986328 24.10193359 -108 24 C-108 24.99 -108 25.98 -108 27 C-107.443125 26.649375 -106.88625 26.29875 -106.3125 25.9375 C-103.46113217 24.78154007 -101.91482778 25.19032562 -99 26 C-99.39701774 31.85601166 -100.01572279 34.51768814 -104 39 C-104.6401245 41.07975936 -104.6401245 41.07975936 -105 43 C-98.92630956 40.19260531 -95.10986755 37.41174945 -91.34375 31.8671875 C-89.12500013 28.78415716 -86.37297623 26.68648811 -83 25 C-81.00039988 24.960008 -78.99952758 24.95653201 -77 25 C-76.6875 27.6875 -76.6875 27.6875 -77 31 C-79.125 33.5625 -79.125 33.5625 -82 36 C-82.52722656 36.46921875 -83.05445313 36.9384375 -83.59765625 37.421875 C-87.68837781 41 -87.68837781 41 -90 41 C-89.67 41.66 -89.34 42.32 -89 43 C-84.02788768 42.6361869 -81.30372337 41.07030259 -77.515625 38.05859375 C-76 37 -76 37 -74 37 C-73.938125 36.443125 -73.87625 35.88625 -73.8125 35.3125 C-72.65005382 32.00399932 -70.57386409 30.33443487 -68 28 C-67.0409375 27.1028125 -67.0409375 27.1028125 -66.0625 26.1875 C-63.29634792 24.59486699 -61.13402799 24.78631627 -58 25 C-57.30859375 27.24609375 -57.30859375 27.24609375 -57 30 C-60.03581375 35.20840889 -64.86448787 38.99384656 -70 42 C-65.85488298 43.38170567 -63.97607235 42.03497158 -60.14453125 40.24609375 C-57.36487452 38.63095623 -55.8609201 36.59199585 -54 34 C-53.154375 33.5875 -52.30875 33.175 -51.4375 32.75 C-48.57781719 30.69689439 -48.43888809 29.78876053 -47.5 26.5 C-46.53953322 23.14928066 -46.24881413 22.21149201 -43.5 19.875 C-41 19 -41 19 -38 20 C-38.4794463 24.21912747 -39.16625119 26.79663178 -42 30 C-41.505 30.9075 -41.01 31.815 -40.5 32.75 C-39 36 -39 36 -39 40 C-33.65417422 36.11846563 -31.09543932 32.14750759 -28.125 26.3125 C-12.09151951 -3.75254054 -12.09151951 -3.75254054 0 0 Z M-5 3 C-9.53898212 6.53401687 -12.96712214 10.19487698 -16.375 14.8125 C-16.82488281 15.40998047 -17.27476562 16.00746094 -17.73828125 16.62304688 C-18.8318657 18.07728151 -19.91685736 19.5379715 -21 21 C-20.67 21.66 -20.34 22.32 -20 23 C-14.11782635 17.35791507 -8.82997802 11.56939133 -4 5 C-4.33 4.34 -4.66 3.68 -5 3 Z M-88 33 C-88.33 33.99 -88.66 34.98 -89 36 C-85.2047869 34.50902342 -83.38957269 32.24299151 -81 29 C-84.19144562 29 -85.69839386 30.93445603 -88 33 Z M-63 29 C-65.97 31.475 -65.97 31.475 -69 34 C-68.67 34.66 -68.34 35.32 -68 36 C-65.69 34.02 -63.38 32.04 -61 30 C-61.66 29.67 -62.32 29.34 -63 29 Z M-48.625 34.5 C-49.07875 34.995 -49.5325 35.49 -50 36 C-48.60667426 39.36720387 -47.0210714 40.9859524 -44 43 C-42.80011955 37.71800407 -42.80011955 37.71800407 -45 33 C-47.12364481 32.77390663 -47.12364481 32.77390663 -48.625 34.5 Z " fill="#000000" transform="translate(218,31)"/>
<path d="M0 0 C1 1 1 1 1.3359375 4.109375 C0.92122191 8.91236016 -0.65471068 11.39486606 -3.375 15.25 C-3.7875 15.86101563 -4.2 16.47203125 -4.625 17.1015625 C-5.73644452 18.74363215 -6.86730429 20.37251664 -8 22 C-10.36980013 24.95377498 -10.36980013 24.95377498 -10 29 C-11.32 29 -12.64 29 -14 29 C-14.2475 29.639375 -14.495 30.27875 -14.75 30.9375 C-16.12838639 34.31454666 -17.65056108 37.61032406 -19.1953125 40.9140625 C-20.17995776 43.0938645 -20.17995776 43.0938645 -20 46 C-16.13275596 45.46288277 -14.03438225 44.40657902 -11 42 C-10.34 42 -9.68 42 -9 42 C-9.32222187 45.0074041 -10.00776762 46.00776762 -12.1875 48.1875 C-15.28719277 50.18507979 -17.32969063 50.84042133 -21 51 C-24 49 -24 49 -24.765625 47.1796875 C-25.42462851 41.05095484 -21.88256414 34.21606845 -19 29 C-23.8494969 28.80602012 -27.52306899 29.09615047 -32 31 C-34.34318704 33.14863703 -34.34318704 33.14863703 -36.375 35.75 C-42.16020494 42.47675675 -48.86454589 48.87334935 -58.00390625 50.31640625 C-63.17940362 50.62084727 -66.12940747 49.33050985 -70 46 C-71.9375 43.4375 -71.9375 43.4375 -73 41 C-72.67 40.01 -72.34 39.02 -72 38 C-71.01 38 -70.02 38 -69 38 C-67.61876037 39.96722008 -66.28511874 41.96868328 -65 44 C-61.94230385 45.52884808 -59.29444887 45.62491387 -56 45 C-48.73900523 41.8004397 -43.28228685 36.81346653 -38 31 C-38.66 30.67 -39.32 30.34 -40 30 C-39.67 28.68 -39.34 27.36 -39 26 C-37.2365625 25.7525 -37.2365625 25.7525 -35.4375 25.5 C-29.85094245 24.09599696 -27.40876235 20.39234797 -24 16 C-17.94850806 8.6161837 -10.33881631 -0.53019571 0 0 Z M-5 4 C-12.93997609 7.96998804 -22.09481853 17.18963707 -26 25 C-22.7 25.33 -19.4 25.66 -16 26 C-14.4123788 23.81550594 -12.82987826 21.62758405 -11.25 19.4375 C-10.8065625 18.82841797 -10.363125 18.21933594 -9.90625 17.59179688 C-6.98045185 13.52579798 -4.41718249 9.38820279 -2 5 C-2.99 4.67 -3.98 4.34 -5 4 Z " fill="#000000" transform="translate(303,28)"/>
<path d="M0 0 C1 1 1 1 1.3359375 4.109375 C0.92122191 8.91236016 -0.65471068 11.39486606 -3.375 15.25 C-3.7875 15.86101563 -4.2 16.47203125 -4.625 17.1015625 C-5.73644452 18.74363215 -6.86730429 20.37251664 -8 22 C-10.36980013 24.95377498 -10.36980013 24.95377498 -10 29 C-11.32 29 -12.64 29 -14 29 C-14.2475 29.639375 -14.495 30.27875 -14.75 30.9375 C-16.12838639 34.31454666 -17.65056108 37.61032406 -19.1953125 40.9140625 C-20.17995776 43.0938645 -20.17995776 43.0938645 -20 46 C-16.13275596 45.46288277 -14.03438225 44.40657902 -11 42 C-10.34 42 -9.68 42 -9 42 C-9.32222187 45.0074041 -10.00776762 46.00776762 -12.1875 48.1875 C-15.28719277 50.18507979 -17.32969063 50.84042133 -21 51 C-24 49 -24 49 -24.80078125 46.72265625 C-25.03911039 43.4654914 -24.37978338 41.46665813 -23.1875 38.4375 C-22.83042969 37.50808594 -22.47335938 36.57867187 -22.10546875 35.62109375 C-21.15173998 33.35977925 -20.13176347 31.1764682 -19 29 C-23.85137688 28.80594492 -27.52986829 29.0703646 -32 31 C-34.53628681 33.38020398 -34.53628681 33.38020398 -36.8125 36.25 C-43.08669293 43.45965241 -50.12162957 49.4401552 -59.9375 50.375 C-64.23720727 50.25331017 -66.71659946 48.82525163 -70 46 C-71.9375 43.4375 -71.9375 43.4375 -73 41 C-72.67 40.01 -72.34 39.02 -72 38 C-71.01 38 -70.02 38 -69 38 C-67.61876037 39.96722008 -66.28511874 41.96868328 -65 44 C-61.94230385 45.52884808 -59.29444887 45.62491387 -56 45 C-48.73900523 41.8004397 -43.28228685 36.81346653 -38 31 C-38.66 30.67 -39.32 30.34 -40 30 C-39.67 28.68 -39.34 27.36 -39 26 C-37.2365625 25.7525 -37.2365625 25.7525 -35.4375 25.5 C-29.85094245 24.09599696 -27.40876235 20.39234797 -24 16 C-17.94850806 8.6161837 -10.33881631 -0.53019571 0 0 Z M-5 4 C-12.93997609 7.96998804 -22.09481853 17.18963707 -26 25 C-22.7 25.33 -19.4 25.66 -16 26 C-14.4123788 23.81550594 -12.82987826 21.62758405 -11.25 19.4375 C-10.8065625 18.82841797 -10.363125 18.21933594 -9.90625 17.59179688 C-6.98045185 13.52579798 -4.41718249 9.38820279 -2 5 C-2.99 4.67 -3.98 4.34 -5 4 Z " fill="#000000" transform="translate(105,28)"/>
</svg>
